<svg xmlns="http://www.w3.org/2000/svg" width="460.775" height="460.745" viewBox="0 0 460.775 460.745">
  <path id="x" d="M285.08,230.4,456.218,59.27a15.538,15.538,0,0,0,0-21.986L423.511,4.565a15.554,15.554,0,0,0-21.985,0L230.388,175.705,59.25,4.565a15.554,15.554,0,0,0-21.985,0L4.558,37.284a15.536,15.536,0,0,0,0,21.986L175.7,230.4,4.575,401.505a15.541,15.541,0,0,0,0,21.986L37.284,456.21a15.555,15.555,0,0,0,21.986,0L230.387,285.09,401.505,456.21a15.554,15.554,0,0,0,21.985,0L456.2,423.491a15.541,15.541,0,0,0,0-21.986Z" transform="translate(0 -0.015)" fill="#fff"/>
</svg>
